<mxfile host="app.diagrams.net" agent="Mozilla/5.0 (Windows NT 10.0; Win64; x64) AppleWebKit/537.36 (KHTML, like Gecko) Chrome/131.0.0.0 Safari/537.36 Edg/131.0.0.0" version="25.0.3">
  <diagram name="Page-1" id="fKqHlCcNLibAjqXjBZtE">
    <mxGraphModel dx="1056" dy="599" grid="1" gridSize="10" guides="1" tooltips="1" connect="1" arrows="1" fold="1" page="1" pageScale="1" pageWidth="1169" pageHeight="827" math="0" shadow="0">
      <root>
        <mxCell id="0" />
        <mxCell id="1" parent="0" />
        <mxCell id="Dam_5JV_bU0dixGNez8O-4" value="" style="group" vertex="1" connectable="0" parent="1">
          <mxGeometry x="162" y="50" width="845" height="710" as="geometry" />
        </mxCell>
        <mxCell id="eGAwzCGtEEyjMhIcRM5q-1" value="Admin" style="shape=umlActor;verticalLabelPosition=bottom;verticalAlign=top;html=1;" parent="Dam_5JV_bU0dixGNez8O-4" vertex="1">
          <mxGeometry x="5" y="40" width="20" height="40" as="geometry" />
        </mxCell>
        <mxCell id="eGAwzCGtEEyjMhIcRM5q-2" value="Guide&amp;nbsp;" style="shape=umlActor;verticalLabelPosition=bottom;verticalAlign=top;html=1;" parent="Dam_5JV_bU0dixGNez8O-4" vertex="1">
          <mxGeometry x="2.5" y="530" width="20" height="40" as="geometry" />
        </mxCell>
        <mxCell id="eGAwzCGtEEyjMhIcRM5q-3" value="&amp;nbsp;" style="shape=umlFrame;whiteSpace=wrap;html=1;pointerEvents=0;" parent="Dam_5JV_bU0dixGNez8O-4" vertex="1">
          <mxGeometry x="185" width="660" height="710" as="geometry" />
        </mxCell>
        <mxCell id="eGAwzCGtEEyjMhIcRM5q-7" value="Gérer les visiteurs" style="ellipse;whiteSpace=wrap;html=1;" parent="Dam_5JV_bU0dixGNez8O-4" vertex="1">
          <mxGeometry x="271.94" y="140" width="110" height="30" as="geometry" />
        </mxCell>
        <mxCell id="eGAwzCGtEEyjMhIcRM5q-8" value="s&#39;authentifier" style="ellipse;whiteSpace=wrap;html=1;" parent="Dam_5JV_bU0dixGNez8O-4" vertex="1">
          <mxGeometry x="664.9988235294118" y="160.00142857142862" width="122.94117647058823" height="21.42857142857143" as="geometry" />
        </mxCell>
        <mxCell id="eGAwzCGtEEyjMhIcRM5q-9" value="&amp;lt;&amp;lt;include&amp;gt;&amp;gt;" style="endArrow=open;endSize=12;dashed=1;html=1;rounded=0;exitX=1;exitY=0.5;exitDx=0;exitDy=0;" parent="Dam_5JV_bU0dixGNez8O-4" source="eGAwzCGtEEyjMhIcRM5q-7" edge="1">
          <mxGeometry width="160" relative="1" as="geometry">
            <mxPoint x="415" y="80" as="sourcePoint" />
            <mxPoint x="665" y="160" as="targetPoint" />
            <Array as="points">
              <mxPoint x="645" y="160" />
            </Array>
          </mxGeometry>
        </mxCell>
        <mxCell id="eGAwzCGtEEyjMhIcRM5q-21" value="Utilisateur" style="shape=umlActor;verticalLabelPosition=bottom;verticalAlign=top;html=1;" parent="Dam_5JV_bU0dixGNez8O-4" vertex="1">
          <mxGeometry y="310" width="25" height="50" as="geometry" />
        </mxCell>
        <mxCell id="eGAwzCGtEEyjMhIcRM5q-19" value="Gérer les visites" style="ellipse;whiteSpace=wrap;html=1;" parent="Dam_5JV_bU0dixGNez8O-4" vertex="1">
          <mxGeometry x="365" y="250" width="110" height="30" as="geometry" />
        </mxCell>
        <mxCell id="eGAwzCGtEEyjMhIcRM5q-20" value="&amp;lt;&amp;lt;include&amp;gt;&amp;gt;" style="endArrow=open;endSize=12;dashed=1;html=1;rounded=0;entryX=0.205;entryY=1.101;entryDx=0;entryDy=0;entryPerimeter=0;" parent="Dam_5JV_bU0dixGNez8O-4" source="eGAwzCGtEEyjMhIcRM5q-19" target="eGAwzCGtEEyjMhIcRM5q-8" edge="1">
          <mxGeometry x="-0.0662" y="2" width="160" relative="1" as="geometry">
            <mxPoint x="365" y="470.01" as="sourcePoint" />
            <mxPoint x="655" y="420" as="targetPoint" />
            <Array as="points" />
            <mxPoint as="offset" />
          </mxGeometry>
        </mxCell>
        <mxCell id="eGAwzCGtEEyjMhIcRM5q-23" value="" style="group" parent="Dam_5JV_bU0dixGNez8O-4" vertex="1" connectable="0">
          <mxGeometry x="325" y="130" width="340" height="50" as="geometry" />
        </mxCell>
        <mxCell id="eGAwzCGtEEyjMhIcRM5q-18" value="&amp;lt;&amp;lt;include&amp;gt;&amp;gt;" style="endArrow=open;endSize=12;dashed=1;html=1;rounded=0;" parent="eGAwzCGtEEyjMhIcRM5q-23" source="eGAwzCGtEEyjMhIcRM5q-17" edge="1">
          <mxGeometry x="-0.0662" y="2" width="160" relative="1" as="geometry">
            <mxPoint x="66.11111111111111" y="100.00999999999998" as="sourcePoint" />
            <mxPoint x="340" y="50" as="targetPoint" />
            <Array as="points" />
            <mxPoint as="offset" />
          </mxGeometry>
        </mxCell>
        <mxCell id="eGAwzCGtEEyjMhIcRM5q-24" value="Affecter les guides sur des visites" style="ellipse;whiteSpace=wrap;html=1;" parent="Dam_5JV_bU0dixGNez8O-4" vertex="1">
          <mxGeometry x="265" y="330" width="110" height="30" as="geometry" />
        </mxCell>
        <mxCell id="eGAwzCGtEEyjMhIcRM5q-25" value="&amp;lt;&amp;lt;include&amp;gt;&amp;gt;" style="endArrow=open;endSize=12;dashed=1;html=1;rounded=0;exitX=1;exitY=0.5;exitDx=0;exitDy=0;" parent="Dam_5JV_bU0dixGNez8O-4" source="eGAwzCGtEEyjMhIcRM5q-24" edge="1">
          <mxGeometry x="0.0889" y="3" width="160" relative="1" as="geometry">
            <mxPoint x="368.3008170870521" y="330.0019712329435" as="sourcePoint" />
            <mxPoint x="710" y="186.94" as="targetPoint" />
            <Array as="points">
              <mxPoint x="600" y="246.94" />
            </Array>
            <mxPoint as="offset" />
          </mxGeometry>
        </mxCell>
        <mxCell id="eGAwzCGtEEyjMhIcRM5q-26" value="" style="endArrow=none;html=1;edgeStyle=orthogonalEdgeStyle;rounded=0;entryX=0.062;entryY=0.893;entryDx=0;entryDy=0;entryPerimeter=0;" parent="Dam_5JV_bU0dixGNez8O-4" target="eGAwzCGtEEyjMhIcRM5q-24" edge="1">
          <mxGeometry relative="1" as="geometry">
            <mxPoint x="45" y="367" as="sourcePoint" />
            <mxPoint x="295.03" y="360.00000000000006" as="targetPoint" />
            <Array as="points">
              <mxPoint x="45" y="368" />
              <mxPoint x="272" y="368" />
            </Array>
          </mxGeometry>
        </mxCell>
        <mxCell id="eGAwzCGtEEyjMhIcRM5q-31" value="" style="endArrow=none;html=1;edgeStyle=orthogonalEdgeStyle;rounded=0;" parent="Dam_5JV_bU0dixGNez8O-4" edge="1">
          <mxGeometry relative="1" as="geometry">
            <mxPoint x="45" y="330" as="sourcePoint" />
            <mxPoint x="275" y="156" as="targetPoint" />
            <Array as="points">
              <mxPoint x="65" y="330" />
              <mxPoint x="65" y="156" />
            </Array>
          </mxGeometry>
        </mxCell>
        <mxCell id="eGAwzCGtEEyjMhIcRM5q-32" value="" style="endArrow=none;html=1;edgeStyle=orthogonalEdgeStyle;rounded=0;entryX=0;entryY=0.5;entryDx=0;entryDy=0;" parent="Dam_5JV_bU0dixGNez8O-4" target="eGAwzCGtEEyjMhIcRM5q-17" edge="1">
          <mxGeometry relative="1" as="geometry">
            <mxPoint x="45" y="340" as="sourcePoint" />
            <mxPoint x="320.5" y="150" as="targetPoint" />
            <Array as="points">
              <mxPoint x="85" y="340" />
              <mxPoint x="85" y="195" />
            </Array>
          </mxGeometry>
        </mxCell>
        <mxCell id="eGAwzCGtEEyjMhIcRM5q-33" value="" style="endArrow=none;html=1;edgeStyle=orthogonalEdgeStyle;rounded=0;entryX=0.073;entryY=0.867;entryDx=0;entryDy=0;entryPerimeter=0;" parent="Dam_5JV_bU0dixGNez8O-4" edge="1">
          <mxGeometry relative="1" as="geometry">
            <mxPoint x="45" y="350" as="sourcePoint" />
            <mxPoint x="375" y="270" as="targetPoint" />
            <Array as="points">
              <mxPoint x="83" y="350" />
              <mxPoint x="140" y="350" />
              <mxPoint x="140" y="270" />
            </Array>
          </mxGeometry>
        </mxCell>
        <mxCell id="eGAwzCGtEEyjMhIcRM5q-34" value="Visualiser ses visites" style="ellipse;whiteSpace=wrap;html=1;" parent="Dam_5JV_bU0dixGNez8O-4" vertex="1">
          <mxGeometry x="305" y="530" width="125" height="40" as="geometry" />
        </mxCell>
        <mxCell id="eGAwzCGtEEyjMhIcRM5q-35" value="Vérifier la présence des visiteurs" style="ellipse;whiteSpace=wrap;html=1;" parent="Dam_5JV_bU0dixGNez8O-4" vertex="1">
          <mxGeometry x="420" y="470" width="125" height="40" as="geometry" />
        </mxCell>
        <mxCell id="eGAwzCGtEEyjMhIcRM5q-36" value="Commenter ses visites" style="ellipse;whiteSpace=wrap;html=1;" parent="Dam_5JV_bU0dixGNez8O-4" vertex="1">
          <mxGeometry x="295" y="650" width="125" height="40" as="geometry" />
        </mxCell>
        <mxCell id="eGAwzCGtEEyjMhIcRM5q-37" value="Signaler ses visites terminées" style="ellipse;whiteSpace=wrap;html=1;" parent="Dam_5JV_bU0dixGNez8O-4" vertex="1">
          <mxGeometry x="585" y="570" width="125" height="40" as="geometry" />
        </mxCell>
        <mxCell id="eGAwzCGtEEyjMhIcRM5q-38" value="" style="endArrow=none;html=1;edgeStyle=orthogonalEdgeStyle;rounded=0;entryX=0;entryY=0.5;entryDx=0;entryDy=0;" parent="Dam_5JV_bU0dixGNez8O-4" target="eGAwzCGtEEyjMhIcRM5q-35" edge="1">
          <mxGeometry relative="1" as="geometry">
            <mxPoint x="75" y="540" as="sourcePoint" />
            <mxPoint x="435" y="440" as="targetPoint" />
            <Array as="points">
              <mxPoint x="105" y="540" />
              <mxPoint x="105" y="490" />
            </Array>
          </mxGeometry>
        </mxCell>
        <mxCell id="eGAwzCGtEEyjMhIcRM5q-39" value="" style="endArrow=none;html=1;edgeStyle=orthogonalEdgeStyle;rounded=0;" parent="Dam_5JV_bU0dixGNez8O-4" target="eGAwzCGtEEyjMhIcRM5q-34" edge="1">
          <mxGeometry relative="1" as="geometry">
            <mxPoint x="75" y="550" as="sourcePoint" />
            <mxPoint x="225" y="520" as="targetPoint" />
            <Array as="points">
              <mxPoint x="205" y="550" />
              <mxPoint x="205" y="550" />
            </Array>
          </mxGeometry>
        </mxCell>
        <mxCell id="eGAwzCGtEEyjMhIcRM5q-40" value="" style="endArrow=none;html=1;edgeStyle=orthogonalEdgeStyle;rounded=0;" parent="Dam_5JV_bU0dixGNez8O-4" edge="1">
          <mxGeometry relative="1" as="geometry">
            <mxPoint x="95" y="590" as="sourcePoint" />
            <mxPoint x="545" y="590" as="targetPoint" />
            <Array as="points">
              <mxPoint x="584" y="589.5" />
            </Array>
          </mxGeometry>
        </mxCell>
        <mxCell id="eGAwzCGtEEyjMhIcRM5q-41" value="" style="endArrow=none;html=1;edgeStyle=orthogonalEdgeStyle;rounded=0;" parent="Dam_5JV_bU0dixGNez8O-4" edge="1">
          <mxGeometry relative="1" as="geometry">
            <mxPoint x="85" y="610" as="sourcePoint" />
            <mxPoint x="255" y="670" as="targetPoint" />
            <Array as="points">
              <mxPoint x="85" y="670" />
            </Array>
          </mxGeometry>
        </mxCell>
        <mxCell id="eGAwzCGtEEyjMhIcRM5q-42" value="&amp;lt;&amp;lt;include&amp;gt;&amp;gt;" style="endArrow=open;endSize=12;dashed=1;html=1;rounded=0;exitX=1;exitY=0.5;exitDx=0;exitDy=0;" parent="Dam_5JV_bU0dixGNez8O-4" edge="1">
          <mxGeometry x="0.0785" y="-4" width="160" relative="1" as="geometry">
            <mxPoint x="710" y="581.43" as="sourcePoint" />
            <mxPoint x="776.47" y="181.43" as="targetPoint" />
            <Array as="points">
              <mxPoint x="785" y="581" />
              <mxPoint x="776.47" y="181.43" />
            </Array>
            <mxPoint as="offset" />
          </mxGeometry>
        </mxCell>
        <mxCell id="eGAwzCGtEEyjMhIcRM5q-43" value="&amp;lt;&amp;lt;include&amp;gt;&amp;gt;" style="endArrow=open;endSize=12;dashed=1;html=1;rounded=0;entryX=0.791;entryY=1.045;entryDx=0;entryDy=0;entryPerimeter=0;exitX=1;exitY=0.5;exitDx=0;exitDy=0;" parent="Dam_5JV_bU0dixGNez8O-4" source="eGAwzCGtEEyjMhIcRM5q-36" edge="1">
          <mxGeometry x="0.0491" y="3" width="160" relative="1" as="geometry">
            <mxPoint x="444.94" y="663" as="sourcePoint" />
            <mxPoint x="782.2452941176471" y="172.39428571428573" as="targetPoint" />
            <Array as="points">
              <mxPoint x="835" y="670" />
              <mxPoint x="835" y="172" />
            </Array>
            <mxPoint as="offset" />
          </mxGeometry>
        </mxCell>
        <mxCell id="eGAwzCGtEEyjMhIcRM5q-45" value="&amp;lt;&amp;lt;include&amp;gt;&amp;gt;" style="endArrow=open;endSize=12;dashed=1;html=1;rounded=0;exitX=1;exitY=0.5;exitDx=0;exitDy=0;" parent="Dam_5JV_bU0dixGNez8O-4" source="eGAwzCGtEEyjMhIcRM5q-34" edge="1">
          <mxGeometry x="0.0491" y="3" width="160" relative="1" as="geometry">
            <mxPoint x="445" y="548.57" as="sourcePoint" />
            <mxPoint x="751.47" y="180" as="targetPoint" />
            <Array as="points">
              <mxPoint x="755" y="549" />
              <mxPoint x="751.47" y="180" />
            </Array>
            <mxPoint as="offset" />
          </mxGeometry>
        </mxCell>
        <mxCell id="eGAwzCGtEEyjMhIcRM5q-46" value="&amp;lt;&amp;lt;include&amp;gt;&amp;gt;" style="endArrow=open;endSize=12;dashed=1;html=1;rounded=0;exitX=1;exitY=0.5;exitDx=0;exitDy=0;" parent="Dam_5JV_bU0dixGNez8O-4" source="eGAwzCGtEEyjMhIcRM5q-35" edge="1">
          <mxGeometry x="0.0491" y="3" width="160" relative="1" as="geometry">
            <mxPoint x="575" y="430.43" as="sourcePoint" />
            <mxPoint x="724.22" y="181.43" as="targetPoint" />
            <Array as="points">
              <mxPoint x="725" y="490" />
              <mxPoint x="724.22" y="181.43" />
            </Array>
            <mxPoint as="offset" />
          </mxGeometry>
        </mxCell>
        <mxCell id="eGAwzCGtEEyjMhIcRM5q-47" value="" style="endArrow=open;endFill=1;endSize=12;html=1;rounded=0;" parent="Dam_5JV_bU0dixGNez8O-4" edge="1">
          <mxGeometry width="160" relative="1" as="geometry">
            <mxPoint x="12" y="520" as="sourcePoint" />
            <mxPoint x="12" y="390" as="targetPoint" />
          </mxGeometry>
        </mxCell>
        <mxCell id="eGAwzCGtEEyjMhIcRM5q-49" value="" style="endArrow=open;endFill=1;endSize=12;html=1;rounded=0;" parent="Dam_5JV_bU0dixGNez8O-4" edge="1">
          <mxGeometry width="160" relative="1" as="geometry">
            <mxPoint x="15" y="300" as="sourcePoint" />
            <mxPoint x="14" y="100" as="targetPoint" />
          </mxGeometry>
        </mxCell>
        <mxCell id="eGAwzCGtEEyjMhIcRM5q-17" value="Gérer les guides touristiques" style="ellipse;whiteSpace=wrap;html=1;" parent="Dam_5JV_bU0dixGNez8O-4" vertex="1">
          <mxGeometry x="275" y="180" width="103.88888888888889" height="30" as="geometry" />
        </mxCell>
        <mxCell id="Dam_5JV_bU0dixGNez8O-1" value="Gérer les visiteurs" style="ellipse;whiteSpace=wrap;html=1;" vertex="1" parent="Dam_5JV_bU0dixGNez8O-4">
          <mxGeometry x="341.94" y="50" width="110" height="30" as="geometry" />
        </mxCell>
        <mxCell id="Dam_5JV_bU0dixGNez8O-2" value="" style="endArrow=none;html=1;edgeStyle=orthogonalEdgeStyle;rounded=0;" edge="1" parent="Dam_5JV_bU0dixGNez8O-4">
          <mxGeometry relative="1" as="geometry">
            <mxPoint x="35" y="66" as="sourcePoint" />
            <mxPoint x="345" y="66" as="targetPoint" />
            <Array as="points">
              <mxPoint x="115" y="66" />
            </Array>
          </mxGeometry>
        </mxCell>
        <mxCell id="Dam_5JV_bU0dixGNez8O-3" value="&amp;lt;&amp;lt;include&amp;gt;&amp;gt;" style="endArrow=open;endSize=12;dashed=1;html=1;rounded=0;exitX=1;exitY=0.5;exitDx=0;exitDy=0;entryX=0.5;entryY=0;entryDx=0;entryDy=0;" edge="1" parent="Dam_5JV_bU0dixGNez8O-4" target="eGAwzCGtEEyjMhIcRM5q-8">
          <mxGeometry width="160" relative="1" as="geometry">
            <mxPoint x="451.94" y="62.5" as="sourcePoint" />
            <mxPoint x="734.94" y="67.5" as="targetPoint" />
            <Array as="points">
              <mxPoint x="725" y="68" />
            </Array>
          </mxGeometry>
        </mxCell>
      </root>
    </mxGraphModel>
  </diagram>
</mxfile>
